<?xml version="1.0" encoding="UTF-8" standalone="no" ?>
<!DOCTYPE svg PUBLIC "-//W3C//DTD SVG 1.1//EN" "http://www.w3.org/Graphics/SVG/1.1/DTD/svg11.dtd">
<svg xmlns="http://www.w3.org/2000/svg" xmlns:xlink="http://www.w3.org/1999/xlink" version="1.1" width="200" height="200" viewBox="0 0 500 500" xml:space="preserve">
<desc>Created with Fabric.js 4.6.0</desc>
<defs>
</defs>
<g transform="matrix(1 0 0 1 221.76 238.37)" id="PP6yvSf49ljMN5uu1J6ZE"  >
<path style="stroke: rgb(0,0,0); stroke-width: 6; stroke-dasharray: none; stroke-linecap: butt; stroke-dashoffset: 0; stroke-linejoin: miter; stroke-miterlimit: 4; fill: rgb(255,255,255); fill-rule: nonzero; opacity: 1;" vector-effect="non-scaling-stroke"  transform=" translate(-150.94, -127.73)" d="M 48.13808 20.64187 L 48.13808 20.64186 C 42.440920000000006 20.64186 37.81715 16.01808 37.81715 10.32093 C 37.81715 4.62377 42.440929999999994 0 48.13808 0 C 48.495160000000006 0 48.84803 0.01816 49.195800000000006 0.05362 L 170.42162000000002 0.05362 C 171.66194000000002 0.017960000000000004 172.90668000000002 0 174.15558000000001 0 C 244.66314 0 301.88667 57.22353 301.88667 127.73109 C 301.88667 198.23865 244.66314 255.46218 174.15558 255.46218 C 172.30589999999998 255.46218 170.46535999999998 255.4228 168.63476 255.34483 L 11.788160000000005 255.34483 C 11.274060000000006 255.42466 10.747320000000006 255.46608 10.210970000000005 255.46608 C 4.575000000000005 255.46608 0.0008900000000053865 250.89196 0.0008900000000053865 245.256 C 0.0008900000000053865 239.62002999999999 4.575010000000005 235.04592 10.210970000000005 235.04592 C 10.868610000000006 235.04592 11.511790000000005 235.10819999999998 12.134930000000004 235.22718 L 105.16547 235.22718 C 98.83456 231.15379000000001 92.88627 226.53652 87.38676 221.44156 L 43.174189999999996 221.44156 C 42.66009 221.52139 42.13334999999999 221.56281 41.596999999999994 221.56281 C 35.961029999999994 221.56281 31.386919999999996 216.98869000000002 31.386919999999996 211.35273 C 31.386919999999996 205.71676000000002 35.96104 201.14265 41.596999999999994 201.14265 C 42.254639999999995 201.14265 42.897819999999996 201.20493 43.520959999999995 201.32391 L 69.76407999999999 201.32391 C 55.06349999999999 180.51675 46.42448999999999 155.12666000000002 46.42448999999999 127.73109000000001 C 46.42448999999999 103.06645 53.42698999999999 80.02738000000001 65.55104999999999 60.49483000000001 L 11.787269999999992 60.49483000000001 C 11.273169999999993 60.57466000000001 10.746429999999993 60.61608000000001 10.210079999999992 60.61608000000001 C 4.574109999999992 60.61608000000001 -7.105427357601002e-15 56.04196000000001 -7.105427357601002e-15 50.40600000000001 C -7.105427357601002e-15 44.77003000000001 4.574119999999993 40.195920000000015 10.210079999999992 40.195920000000015 C 10.867719999999993 40.195920000000015 11.510899999999992 40.258200000000016 12.134039999999992 40.37718000000002 L 80.99055999999999 40.37718000000002 C 88.00643999999998 32.898080000000014 95.91178 26.263170000000017 104.53715999999999 20.64187000000002 z M 88.6413 127.5311 C 88.6413 174.84539 127.0413 213.24539 174.35559 213.24539 C 221.66988 213.24539 260.06988 174.84538999999998 260.06988 127.53109999999998 C 260.06988 80.21680999999998 221.66988 41.816809999999975 174.35559 41.816809999999975 C 127.0413 41.816809999999975 88.6413 80.21680999999998 88.6413 127.53109999999998 z" stroke-linecap="round" />
</g>
<g transform="matrix(1 0 0 1 375.61 270.87)" id="hl55kVAvD4-ZNCI03gAQe"  >
<path style="stroke: rgb(255,255,255); stroke-width: 6; stroke-dasharray: none; stroke-linecap: butt; stroke-dashoffset: 0; stroke-linejoin: miter; stroke-miterlimit: 4; fill: rgb(0,0,0); fill-rule: nonzero; opacity: 1;" vector-effect="non-scaling-stroke"  transform=" translate(-52.39, -90.68)" d="M 100.49123 82.15921 C 100.49123 99.42908 96.07106 115.67283 88.30109 129.82012 L 104.77817 179.25136 L 57.89397 163.62329 C 41.83675 174.80653999999998 22.32213 181.36554999999998 1.284870000000005 181.36554999999998 C 0.855940000000005 181.36554999999998 0.427640000000005 181.36281999999997 -0.000009999999994958486 181.35738999999998 C 41.43558 155.98281999999998 69.10083000000002 110.29104999999998 69.10083000000002 58.17699999999998 C 69.10083000000002 37.481829999999974 64.73805000000002 17.799439999999976 56.882660000000016 -2.1316282072803006e-14 C 83.19280000000002 17.846229999999977 100.49122000000001 47.99485999999998 100.49122000000001 82.15919999999997 z" stroke-linecap="round" />
</g>
</svg>